<?xml version="1.0" encoding="utf-8"?>
<!-- Generator: Adobe Illustrator 23.0.1, SVG Export Plug-In . SVG Version: 6.00 Build 0)  -->
<svg version="1.1" xmlns="http://www.w3.org/2000/svg" xmlns:xlink="http://www.w3.org/1999/xlink" x="0px" y="0px"
	 viewBox="0 0 20 20" style="enable-background:new 0 0 20 20;" xml:space="preserve">
<style type="text/css">
	.st0{fill:#434A4D;}
	.st1{display:none;}
	.st2{display:inline;}
</style>
<g id="browser">
</g>
<g id="security_x27_n_x27_privacy">
</g>
<g id="games">
</g>
<g id="business_x27_n_x27_productivity">
</g>
<g id="internet_x27_n_x27_network">
</g>
<g id="multimedia">
	<path class="st0" d="M11,13.2c0.4,0,0.8-0.3,0.8-0.8c0-0.4-0.3-0.8-0.8-0.8s-0.8,0.3-0.8,0.8C10.2,12.8,10.6,13.2,11,13.2z"/>
	<path class="st0" d="M19.2,7.8c-0.1,0-0.3,0-0.4,0.1L15,10.3V9.6c0-0.7-0.5-1.3-1.2-1.4C14.5,7.3,15,6.3,15,5.1
		c0-2.5-2-4.5-4.5-4.5C8.6,0.5,7,1.7,6.3,3.3C5.7,2.6,4.7,2.2,3.7,2.2C1.7,2.2,0,3.9,0,5.9c0,0.9,0.3,1.7,0.9,2.3C0.4,8.5,0,9,0,9.6
		v8.1c0,0.8,0.6,1.4,1.4,1.4h12.1c0.8,0,1.4-0.6,1.4-1.4V17l3.7,2.3c0.1,0.1,0.3,0.1,0.4,0.1c0.4,0,0.8-0.3,0.8-0.8v-10
		C20,8.2,19.6,7.8,19.2,7.8z M7.1,8.1H6.7C6.8,8,6.8,8,6.9,7.9C7,7.9,7,8,7.1,8.1z M10.5,2c1.7,0,3,1.4,3,3c0,1.7-1.4,3-3,3
		s-3-1.4-3-3C7.4,3.4,8.8,2,10.5,2z M3.7,3.7c1.2,0,2.2,1,2.2,2.2c0,1.2-1,2.2-2.2,2.2h0c-1.2,0-2.2-1-2.2-2.2
		C1.5,4.7,2.5,3.7,3.7,3.7z M13.5,17.6h-12v-8h2.2c0,0,0,0,0,0s0,0,0,0h9.8V17.6z M18.5,17.4L15,15.3V12l3.5-2.1V17.4z"/>
	<rect x="3.5" y="11.6" class="st0" width="6" height="1.5"/>
</g>
<g id="development_x27_n_x27_it_1_">
</g>
<g id="education_x27_n_x27_reference">
</g>
<g id="lifestyle">
</g>
<g id="social_x27_n_x27_communication">
</g>
<g id="personalization">
	<g id="Layer_14_copy">
	</g>
</g>
<g id="travel_x27_n_x27_navigation">
</g>
<g id="utilities_x27_n_x27_tools_x0A_">
</g>
<g id="cd_x27_n_x27_dvd">
</g>
</svg>
